<svg width="423" height="94" viewBox="0 0 423 94" xmlns="http://www.w3.org/2000/svg"><g fill="none" fill-rule="evenodd"><path d="M16.968 58.586c0 12.64 8.776 20.172 19.71 20.172 25.92 0 25.92-40.207 0-40.207-10.934 0-19.71 7.393-19.71 20.035zm39.42-33.08h16.336v66.296H56.39v-9.683c-3.78 7.8-14.176 11.566-21.602 11.698-19.71.138-34.29-11.968-34.29-35.231 0-22.861 15.256-34.83 34.695-34.693 8.911 0 17.417 4.169 21.197 10.755v-9.142zm70.94 66.296V56.3c0-8.74-4.592-16.673-13.637-16.673-8.91 0-14.175 7.933-14.175 16.673v35.502h-16.47V25.37h16.605l-.135 8.069c3.51-6.724 11.205-9.143 17.55-9.143 7.965 0 15.932 3.226 19.71 12.372 5.94-9.413 13.636-12.106 22.276-12.106 18.9 0 28.216 11.566 28.216 31.468v35.772h-16.47V56.03c0-8.74-3.645-16.136-12.556-16.136-8.91 0-14.445 7.666-14.445 16.406v35.502h-16.47zm86.65-84.206c0 4.094-3.475 7.413-7.764 7.413h-.807c-4.287 0-7.764-3.319-7.764-7.413 0-4.095 3.477-7.414 7.764-7.414h.807c4.289 0 7.764 3.32 7.764 7.414zm-16.2 17.638h16.47v66.567h-16.47V25.234z" fill="#1F2F48"/><path d="M340.034 78.757c25.921 0 25.921-40.207 0-40.207-10.935 0-19.71 7.393-19.71 20.035s8.775 20.172 19.71 20.172zm19.71-44.109v-9.142h16.336V91.8h-16.336v-9.682c-3.78 7.8-14.176 11.565-21.6 11.698-18.016.125-31.711-10.01-33.936-29.515a285.839 285.839 0 01-5.343 5.788c-6.883 7.236-14.366 14.052-14.531 14.206-7.393 6.817-15.21 9.52-24.634 9.52-19.305 0-35.37-11.565-35.37-35.094 0-23.535 16.065-35.1 35.37-35.1 9.452 0 16.74 2.689 24.031 9.816L273.337 44.33c-3.915-3.495-8.776-5.245-13.366-5.245-11.069 0-19.169 8.07-19.169 19.636 0 12.638 8.64 19.36 18.898 19.36 2.59 0 5.204-.291 7.626-1.2 4.942-1.856 12.983-9.458 16.209-12.727 3.873-3.925 22.894-23.523 27.956-28.964.301-.359.625-.691.942-1.035.117-.132.25-.283.29-.337v.035c6.307-6.63 15.457-10.034 25.826-9.962 8.91 0 17.416 4.168 21.195 10.756zm43.628-1.48c5.13-8.202 12.016-9.412 18.765-9.412v16.273c-8.64 0-18.765 4.571-18.765 16.811V91.8h-16.47V25.507h16.47v7.663z" fill="#FF5800" fill-rule="nonzero"/></g></svg>